<svg width="28" height="30" viewBox="0 0 28 30" fill="none" xmlns="http://www.w3.org/2000/svg"><path d="M22.566 21.205c-1.14 0-2.16.452-2.94 1.16l-10.695-6.25a4.95 4.95 0 0 0 .135-1.055c0-.361-.06-.708-.135-1.054l10.575-6.19a4.47 4.47 0 0 0 3.06 1.22c2.49 0 4.5-2.018 4.5-4.518S25.056 0 22.566 0s-4.5 2.018-4.5 4.518c0 .362.06.708.135 1.054l-10.575 6.19a4.47 4.47 0 0 0-3.06-1.22c-2.49 0-4.5 2.018-4.5 4.518s2.01 4.518 4.5 4.518c1.185 0 2.25-.467 3.06-1.22l10.68 6.265c-.075.317-.12.648-.12.98 0 2.424 1.965 4.397 4.38 4.397s4.38-1.973 4.38-4.398c0-2.424-1.965-4.397-4.38-4.397z" fill="#fff"/></svg>