<svg width="30" height="26" viewBox="0 0 30 26" fill="none" xmlns="http://www.w3.org/2000/svg"><path d="M29.066 13c0 3.448-1.309 6.754-3.64 9.192C23.096 24.63 19.934 26 16.638 26c-3.3 0-6.463-1.358-8.838-3.756l2.071-2.166a9.27 9.27 0 0 0 3.083 2.25 8.91 8.91 0 0 0 3.684.783c8.617 0 12.925-10.891 6.835-17.261C17.384-.52 6.972 4.001 6.972 13h4.143L5.59 18.778h-.138L.066 13H4.21c0-3.448 1.31-6.754 3.64-9.192C10.18 1.37 13.343 0 16.639 0c3.296 0 6.457 1.37 8.788 3.808 2.331 2.438 3.64 5.744 3.64 9.192z" fill="#fff"/></svg>