<svg width="119" height="26" viewBox="0 0 119 26" fill="none" xmlns="http://www.w3.org/2000/svg"><path d="M28.88 5.807c-.334-.267-.803-.4-1.271-.4-.503 0-.971.167-1.34.434a1.66 1.66 0 0 0-.668 1.368v2.837c0 .167.1.334.234.434a.632.632 0 0 0 .268.067.621.621 0 0 0 .234-.067l2.911-1.402c.168-.066.268-.267.268-.467V7.109c0-.267-.067-.534-.167-.768-.1-.2-.268-.4-.469-.534zm89.484 0c-.334-.267-.803-.4-1.271-.4a2.29 2.29 0 0 0-1.339.434 1.66 1.66 0 0 0-.669 1.368v2.837c0 .167.1.334.234.434.101.034.168.067.268.067.067 0 .134-.034.234-.067l2.912-1.402c.167-.066.267-.267.267-.467V7.109c0-.267-.067-.534-.167-.768-.134-.2-.268-.4-.469-.534z" fill="#BE1E25"/><path d="M51.234 8.11c.1-.166.134-.4.134-.667s-.034-.5-.134-.734a1.546 1.546 0 0 0-.435-.601 2.27 2.27 0 0 0-.602-.434 1.805 1.805 0 0 0-.737-.133c-.569 0-1.338.233-1.84 1.235l-5.957 12.382c-.803-1.568-6.19-12.282-6.258-12.416-.502-1.034-1.271-1.235-1.84-1.235-.268 0-.502.034-.736.134-.235.1-.436.233-.603.434-.2.2-.334.4-.435.6-.1.234-.134.468-.134.735 0 .3.034.5.134.667 0 0 8.132 15.754 8.165 15.754.168.334.335.668.536 1.001.134.234.335.4.535.534.235.134.469.167.736.167.402 0 .77-.167 1.105-.467.301-.267.569-.634.803-1.168L51.234 8.11zM24.898.567a1.96 1.96 0 0 0-.636-.433A1.805 1.805 0 0 0 23.526 0c-.536 0-1.272.2-1.707 1.202 0 .033-8.165 16.621-8.969 18.257-.836-1.636-9.27-18.257-9.27-18.257C3.08.2 2.344 0 1.84 0c-.234 0-.501.067-.702.167C.904.267.703.4.535.6c-.167.2-.334.4-.401.6A1.75 1.75 0 0 0 0 1.901c0 .334.067.568.167.802 0 .033 10.91 21.294 10.91 21.294.167.333.334.634.535.968.134.233.335.4.536.534.2.1.468.167.736.167.368 0 .703-.167 1.037-.501.268-.267.536-.634.77-1.168 0 0 10.575-21.294 10.608-21.294.1-.2.168-.468.168-.735 0-.267-.067-.5-.134-.734a3.289 3.289 0 0 0-.435-.668zm4.383 10.047c-.067-.066-.167-.066-.268-.066a.621.621 0 0 0-.234.066l-2.844 1.436a.52.52 0 0 0-.268.434v11.381c0 .5.167.968.535 1.335.168.2.368.334.603.434.234.1.468.167.736.167.502 0 .937-.167 1.339-.5.2-.168.368-.368.468-.602.1-.233.167-.467.167-.734V11.048c0-.2-.1-.333-.234-.434zm82.591 12.016a1.96 1.96 0 0 0-.635-.435 1.832 1.832 0 0 0-.737-.166h-2.576c-.435 0-.871-.034-1.272-.1a6.715 6.715 0 0 1-1.171-.334c-.368-.167-.737-.334-1.071-.568-.335-.233-.67-.5-1.004-.8a5.571 5.571 0 0 1-.837-.969 6.715 6.715 0 0 1-.602-1.068c-.167-.367-.268-.768-.368-1.168-.067-.4-.134-.834-.134-1.268V9.479h8.835c.267 0 .502-.033.736-.134.234-.1.435-.233.636-.4.2-.2.334-.4.435-.634.1-.234.133-.5.133-.768 0-.6-.133-1.068-.468-1.402-.301-.334-.77-.5-1.339-.5h-9.002V2.737c-.033-.5-.234-.935-.602-1.335-.167-.2-.402-.334-.602-.434A1.83 1.83 0 0 0 99.49.8a1.805 1.805 0 0 0-1.338.534c-.2.167-.335.367-.435.6-.1.234-.134.468-.134.702v13.35c0 .701.067 1.369.2 2.036.135.634.335 1.269.57 1.87.267.6.569 1.168.937 1.702.368.534.836 1.034 1.338 1.535.502.467 1.038.901 1.607 1.268a9.524 9.524 0 0 0 1.74.901c.602.234 1.238.434 1.907.534.67.134 1.339.167 2.042.167.535 0 1.405-.033 2.576-.067.603-.033 1.038-.2 1.372-.534.335-.333.502-.8.502-1.368 0-.267-.067-.5-.167-.734 0-.267-.167-.468-.335-.668zm6.86-12.016c-.067-.066-.167-.066-.267-.066a.625.625 0 0 0-.235.066l-2.844 1.436a.522.522 0 0 0-.268.434v11.381c0 .5.167.968.536 1.335.167.2.368.334.602.434.234.1.468.167.736.167.502 0 .937-.167 1.339-.5.201-.168.368-.368.468-.602.101-.233.168-.467.168-.734V11.048c0-.2-.067-.333-.235-.434zM95.173 15.92c0-.7-.067-1.368-.2-2.036a12.435 12.435 0 0 0-.57-1.902c-.267-.6-.568-1.201-.937-1.736-.368-.534-.836-1.068-1.305-1.568-.502-.5-1.037-.935-1.572-1.302-.57-.367-1.138-.7-1.74-.934-.603-.267-1.239-.434-1.908-.568-.67-.133-1.339-.2-2.041-.2-.703 0-1.406.067-2.042.2-.669.134-1.305.3-1.907.568-.603.267-1.205.567-1.74.934-.536.367-1.071.801-1.573 1.302-.502.5-.937 1.034-1.305 1.568a8.699 8.699 0 0 0-.937 1.736c-.235.6-.435 1.235-.57 1.87a10 10 0 0 0-.2 2.035v8.077c0 .267.067.5.134.735.1.233.234.433.435.6.167.167.401.3.602.4.234.101.469.134.703.134.268 0 .502-.066.736-.166.234-.1.435-.234.636-.434.2-.2.335-.4.435-.635.1-.233.134-.5.134-.767v-7.91c0-.434.033-.868.1-1.302.067-.4.201-.801.368-1.168.168-.367.369-.735.57-1.102.234-.334.501-.667.836-1.001.301-.3.636-.6 1.004-.835a6.753 6.753 0 0 1 1.07-.6c.369-.167.77-.267 1.206-.367.401-.067.87-.134 1.305-.134.435 0 .87.033 1.271.134.402.066.803.2 1.171.367a6.74 6.74 0 0 1 1.071.6c.335.234.67.501 1.004.835.302.334.603.667.837 1.001.234.334.435.701.602 1.102.168.367.268.767.335 1.168.067.4.134.834.134 1.302v8.043c0 .267.033.5.134.735.1.233.234.433.435.6.368.334.803.501 1.338.501.268 0 .502-.067.737-.167.234-.1.434-.233.635-.434.201-.2.335-.4.435-.634.1-.234.134-.467.134-.734v-7.91zm-24.262-4.271c-.267-.601-.569-1.202-.937-1.736a11.187 11.187 0 0 0-1.305-1.568 11.145 11.145 0 0 0-1.573-1.302c-.569-.367-1.137-.701-1.74-.935-.602-.267-1.238-.434-1.907-.567-.636-.134-1.339-.2-2.042-.2-.702 0-1.405.066-2.04.2-.67.133-1.306.3-1.908.567a8.74 8.74 0 0 0-1.74.935c-.57.367-1.071.8-1.573 1.302-.502.5-.937 1.034-1.306 1.568-.368.568-.702 1.135-.937 1.736a11.41 11.41 0 0 0-.568 1.902 9.993 9.993 0 0 0-.201 2.036 10 10 0 0 0 .2 2.036c.134.668.302 1.302.57 1.903.267.6.568 1.201.936 1.735.369.534.837 1.068 1.306 1.569.502.5 1.037.935 1.572 1.302.57.367 1.138.7 1.74.934.603.267 1.239.434 1.908.568a10.666 10.666 0 0 0 4.116 0A7.538 7.538 0 0 0 65.39 25c.602-.268 1.204-.635 1.773-1.035a5.82 5.82 0 0 0 .737-.601c0 .734.033.834.033.901.1.5.301.868.602 1.135.302.267.703.4 1.205.4.502 0 .937-.166 1.339-.467.2-.167.368-.367.468-.6.1-.234.168-.468.168-.768v-8.411c0-.701-.067-1.369-.201-2.036-.168-.634-.335-1.268-.603-1.87zm-4.618 8.811c-1.338 1.335-2.978 2.036-4.886 2.036-1.94 0-3.58-.667-4.952-2.036-1.339-1.368-2.042-2.97-2.042-4.906 0-1.903.67-3.538 2.042-4.906 1.338-1.369 3.012-2.036 4.952-2.036 1.908 0 3.548.667 4.886 2.036 1.339 1.368 2.042 3.003 2.042 4.906 0 1.902-.67 3.538-2.042 4.906z" fill="#010101"/><path d="M61.407 8.61c-1.94 0-3.58.668-4.953 2.037-1.338 1.368-2.04 3.003-2.04 4.906 0 1.902.668 3.538 2.04 4.906 1.339 1.335 3.012 2.036 4.953 2.036 1.908 0 3.547-.667 4.886-2.036 1.339-1.368 2.041-2.97 2.041-4.906 0-1.903-.669-3.538-2.041-4.906-1.339-1.369-2.978-2.036-4.886-2.036zm5.957 4.473c.167.367.268.768.368 1.168.067.4.134.835.134 1.302 0 .434-.034.868-.134 1.268-.067.4-.2.801-.368 1.168a6.725 6.725 0 0 1-.603 1.069 7.364 7.364 0 0 1-.836 1c-.335.301-.636.602-1.004.835a4.723 4.723 0 0 1-1.07.568 4.68 4.68 0 0 1-1.172.333c-.402.067-.837.134-1.272.134-.468 0-.903-.034-1.305-.134-.401-.066-.803-.2-1.205-.333-.368-.167-.736-.334-1.104-.568-.335-.233-.67-.5-1.004-.834a6.039 6.039 0 0 1-.837-1.002 4.694 4.694 0 0 1-.568-1.067 4.673 4.673 0 0 1-.335-1.169c-.067-.4-.134-.834-.134-1.268 0-.434.034-.868.134-1.302.067-.4.2-.8.335-1.168.167-.367.368-.734.602-1.101.234-.334.502-.668.837-1.002.3-.3.635-.6 1.004-.834a6.749 6.749 0 0 1 1.07-.6c.368-.168.77-.268 1.205-.368a7.84 7.84 0 0 1 1.305-.133c.435 0 .87.033 1.272.133.401.067.803.2 1.171.367.368.167.736.367 1.071.601.335.234.67.5 1.004.834.301.334.602.668.837 1.002.234.367.434.734.602 1.101z" fill="#010101"/></svg>