<svg width="119" height="26" viewBox="0 0 119 26" fill="none" xmlns="http://www.w3.org/2000/svg">
<path d="M28.8791 5.80676C28.5445 5.53976 28.076 5.40625 27.6075 5.40625C27.1055 5.40625 26.637 5.57313 26.2689 5.84014C25.8339 6.1739 25.5996 6.64116 25.5996 7.20856V10.0455C25.5996 10.2124 25.7 10.3793 25.8339 10.4794C25.9008 10.5128 26.0012 10.5462 26.1016 10.5462C26.1685 10.5462 26.2689 10.5128 26.3358 10.4794L29.2472 9.07762C29.4146 9.01086 29.515 8.81061 29.515 8.61035V7.10843C29.515 6.84142 29.448 6.57441 29.3476 6.34078C29.2472 6.14052 29.0799 5.94027 28.8791 5.80676Z" fill="white"/>
<path d="M118.364 5.80676C118.029 5.53976 117.56 5.40625 117.092 5.40625C116.59 5.40625 116.121 5.57313 115.753 5.84014C115.318 6.1739 115.084 6.64116 115.084 7.20856V10.0455C115.084 10.2124 115.184 10.3793 115.318 10.4794C115.419 10.5128 115.486 10.5462 115.586 10.5462C115.653 10.5462 115.72 10.5128 115.82 10.4794L118.732 9.07762C118.899 9.01086 118.999 8.81061 118.999 8.61035V7.10843C118.999 6.84142 118.932 6.57441 118.832 6.34078C118.698 6.14052 118.564 5.94027 118.364 5.80676Z" fill="white"/>
<path d="M51.235 8.11114C51.3354 7.94426 51.3688 7.71063 51.3688 7.44362C51.3688 7.17661 51.3354 6.94298 51.235 6.70935C51.1346 6.47572 51.0007 6.27546 50.7999 6.10858C50.5991 5.90832 50.3984 5.77482 50.1976 5.67469C49.9633 5.57456 49.7291 5.54119 49.4613 5.54119C48.8925 5.54119 48.1228 5.77482 47.6208 6.7761C47.6208 6.7761 42.4338 17.5566 41.6641 19.1586C40.861 17.5899 35.4732 6.87623 35.4062 6.74273C34.9043 5.70807 34.1346 5.50781 33.5657 5.50781C33.298 5.50781 33.0637 5.54119 32.8295 5.64132C32.5952 5.74145 32.3944 5.87495 32.2271 6.0752C32.0263 6.27546 31.8925 6.47572 31.7921 6.67597C31.6917 6.90961 31.6582 7.14324 31.6582 7.41025C31.6582 7.71063 31.6917 7.91089 31.7921 8.07777C31.7921 8.07777 39.9239 23.8313 39.9574 23.8313C40.1247 24.165 40.2921 24.4988 40.4928 24.8325C40.6267 25.0662 40.8275 25.2331 41.0283 25.3666C41.2625 25.5001 41.4968 25.5334 41.7645 25.5334C42.1661 25.5334 42.5342 25.3666 42.8688 25.0662C43.17 24.7992 43.4377 24.432 43.672 23.898L51.235 8.11114Z" fill="white"/>
<path d="M24.8976 0.567392C24.6968 0.367135 24.4961 0.233632 24.2618 0.133503C24.0276 0.0333753 23.7933 0 23.5256 0C22.9902 0 22.2539 0.200256 21.8189 1.20154C21.8189 1.23491 13.6535 17.8228 12.8504 19.4582C12.0138 17.8228 3.58071 1.20154 3.58071 1.20154C3.07874 0.200256 2.34252 0 1.84055 0C1.6063 0 1.33858 0.0667521 1.1378 0.16688C0.903544 0.267008 0.702755 0.400512 0.535433 0.600769C0.36811 0.801025 0.200788 1.00128 0.133859 1.20154C0.0334651 1.43517 0 1.6688 0 1.90243C0 2.23619 0.0669291 2.46983 0.167323 2.70346C0.167323 2.73684 11.0768 23.9974 11.0768 23.9974C11.2441 24.3311 11.4114 24.6315 11.6122 24.9653C11.7461 25.1989 11.9469 25.3658 12.1476 25.4993C12.3484 25.5994 12.6161 25.6662 12.8839 25.6662C13.252 25.6662 13.5866 25.4993 13.9213 25.1655C14.189 24.8985 14.4567 24.5314 14.6909 23.9974C14.6909 23.9974 25.2657 2.70346 25.2992 2.70346C25.3996 2.5032 25.4665 2.23619 25.4665 1.96919C25.4665 1.70218 25.3996 1.46855 25.3327 1.23491C25.1988 0.967904 25.065 0.767648 24.8976 0.567392Z" fill="white"/>
<path d="M29.2821 10.6136C29.2152 10.5469 29.1148 10.5469 29.0144 10.5469C28.9475 10.5469 28.8471 10.5803 28.7802 10.6136L25.9357 12.0488C25.7684 12.1489 25.668 12.3158 25.668 12.4827V13.3838V23.8639C25.668 24.3646 25.8353 24.8318 26.2034 25.199C26.3707 25.3992 26.5715 25.5327 26.8058 25.6328C27.04 25.733 27.2743 25.7997 27.542 25.7997C28.044 25.7997 28.479 25.6328 28.8806 25.2991C29.0814 25.1322 29.2487 24.932 29.3491 24.6983C29.4495 24.4647 29.5164 24.2311 29.5164 23.964V11.0475C29.5164 10.8473 29.416 10.7138 29.2821 10.6136Z" fill="white"/>
<path d="M111.871 22.6287C111.671 22.4285 111.47 22.295 111.236 22.1948C111.001 22.0947 110.767 22.0279 110.499 22.0279H109.261H108.023H107.923C107.488 22.0279 107.053 21.9946 106.651 21.9278C106.249 21.8611 105.848 21.7276 105.48 21.5941C105.112 21.4272 104.743 21.2603 104.409 21.0267C104.074 20.793 103.74 20.526 103.405 20.2256C103.07 19.9253 102.803 19.5915 102.568 19.2577C102.334 18.924 102.133 18.5568 101.966 18.1897C101.799 17.8226 101.698 17.4221 101.598 17.0215C101.531 16.621 101.464 16.1871 101.464 15.7532C101.464 15.7532 101.464 10.3463 101.464 9.47855C102.367 9.47855 110.299 9.47855 110.299 9.47855C110.566 9.47855 110.801 9.44518 111.035 9.34505C111.269 9.24492 111.47 9.11142 111.671 8.94454C111.871 8.74428 112.005 8.54402 112.106 8.31039C112.206 8.07676 112.24 7.80975 112.24 7.54274C112.24 6.94197 112.106 6.47471 111.771 6.14095C111.47 5.80719 111.001 5.64031 110.432 5.64031C110.432 5.64031 102.334 5.64031 101.43 5.64031C101.43 4.90604 101.43 2.76997 101.43 2.76997V2.73659C101.397 2.23595 101.196 1.80206 100.828 1.40155C100.661 1.20129 100.427 1.06779 100.226 0.967661C99.9915 0.867533 99.7572 0.800781 99.4895 0.800781C99.2218 0.800781 98.9875 0.834158 98.7533 0.934286C98.519 1.03441 98.3182 1.16792 98.1509 1.3348C97.9501 1.50168 97.8163 1.70193 97.7159 1.93557C97.6155 2.1692 97.582 2.40283 97.582 2.63646V15.9869C97.582 16.6878 97.649 17.3553 97.7828 18.0228C97.9167 18.657 98.1175 19.2911 98.3517 19.8919C98.6194 20.4926 98.9206 21.06 99.2887 21.5941C99.6568 22.1281 100.125 22.6287 100.627 23.1294C101.129 23.5966 101.665 24.0305 102.234 24.3976C102.803 24.7648 103.371 25.0652 103.974 25.2988C104.576 25.5324 105.212 25.7327 105.881 25.8328C106.551 25.9663 107.22 25.9997 107.923 25.9997C108.458 25.9997 109.328 25.9663 110.499 25.9329C111.102 25.8996 111.537 25.7327 111.871 25.3989C112.206 25.0652 112.373 24.5979 112.373 24.0305C112.373 23.7635 112.306 23.5299 112.206 23.2962C112.206 23.0292 112.039 22.829 111.871 22.6287Z" fill="white"/>
<path d="M118.733 10.6136C118.666 10.5469 118.566 10.5469 118.466 10.5469C118.399 10.5469 118.298 10.5803 118.231 10.6136L115.387 12.0488C115.22 12.1489 115.119 12.3158 115.119 12.4827V23.8639C115.119 24.3646 115.286 24.8318 115.655 25.199C115.822 25.3992 116.023 25.5327 116.257 25.6328C116.491 25.733 116.725 25.7997 116.993 25.7997C117.495 25.7997 117.93 25.6328 118.332 25.2991C118.533 25.1322 118.7 24.932 118.8 24.6983C118.901 24.4647 118.968 24.2311 118.968 23.964V11.0475C118.968 10.8473 118.901 10.7138 118.733 10.6136Z" fill="white"/>
<path d="M95.1722 15.9203C95.1722 15.2194 95.1053 14.5519 94.9715 13.8843C94.8376 13.2502 94.6368 12.5827 94.4026 11.9819C94.1348 11.3811 93.8337 10.7804 93.4655 10.2463C93.0974 9.71233 92.6289 9.17831 92.1604 8.67767C91.6585 8.17703 91.123 7.74314 90.5876 7.37601C90.0187 7.00887 89.4498 6.67511 88.8474 6.44148C88.2451 6.17447 87.6092 6.00759 86.94 5.87408C86.2707 5.74058 85.6014 5.67383 84.8986 5.67383C84.1959 5.67383 83.4931 5.74058 82.8573 5.87408C82.188 6.00759 81.5522 6.17447 80.9498 6.44148C80.3474 6.70848 79.7451 7.00887 79.2096 7.37601C78.6742 7.74314 78.1388 8.17703 77.6368 8.67767C77.1348 9.17831 76.6998 9.71233 76.3317 10.2463C75.9636 10.7804 75.6289 11.3811 75.3947 11.9819C75.1604 12.5827 74.9596 13.2168 74.8258 13.851C74.6919 14.4851 74.625 15.186 74.625 15.8869V23.9639C74.625 24.2309 74.6919 24.4645 74.7589 24.6982C74.8592 24.9318 74.9931 25.1321 75.1939 25.2989C75.3612 25.4658 75.5955 25.5993 75.7963 25.6995C76.0305 25.7996 76.2648 25.833 76.499 25.833C76.7667 25.833 77.001 25.7662 77.2352 25.6661C77.4695 25.566 77.6703 25.4324 77.8711 25.2322C78.0719 25.0319 78.2057 24.8317 78.3061 24.598C78.4065 24.3644 78.44 24.0974 78.44 23.8304V15.9203C78.44 15.4864 78.4734 15.0525 78.5404 14.6186C78.6073 14.2181 78.7411 13.8176 78.9085 13.4504C79.0758 13.0833 79.2766 12.7162 79.4774 12.349C79.7116 12.0153 79.9793 11.6815 80.314 11.3478C80.6152 11.0474 80.9498 10.747 81.3179 10.5134C81.6526 10.2797 82.0207 10.0795 82.3888 9.91259C82.7569 9.74571 83.1585 9.64558 83.5935 9.54545C83.9951 9.4787 84.4636 9.41194 84.8986 9.41194C85.3337 9.41194 85.7687 9.44532 86.1703 9.54545C86.5718 9.6122 86.9734 9.74571 87.3415 9.91259C87.7096 10.0795 88.0778 10.2797 88.4124 10.5134C88.7471 10.747 89.0817 11.014 89.4163 11.3478C89.7175 11.6815 90.0187 12.0153 90.253 12.349C90.4872 12.6828 90.688 13.0499 90.8553 13.4504C91.0226 13.8176 91.123 14.2181 91.19 14.6186C91.2569 15.0191 91.3238 15.453 91.3238 15.9203V23.9639C91.3238 24.2309 91.3573 24.4645 91.4577 24.6982C91.5581 24.9318 91.6919 25.1321 91.8927 25.2989C92.2608 25.6327 92.6959 25.7996 93.2313 25.7996C93.499 25.7996 93.7333 25.7328 93.9675 25.6327C94.2018 25.5326 94.4026 25.3991 94.6033 25.1988C94.8041 24.9986 94.938 24.7983 95.0384 24.5647C95.1388 24.331 95.1722 24.0974 95.1722 23.8304V15.9203Z" fill="white"/>
<path d="M70.9123 11.6479C70.6446 11.0471 70.3434 10.4464 69.9753 9.91236C69.6072 9.37834 69.1722 8.84433 68.6702 8.34369C68.1682 7.84305 67.6328 7.40916 67.0974 7.04202C66.5285 6.67489 65.9596 6.34112 65.3572 6.10749C64.7548 5.84048 64.119 5.6736 63.4497 5.5401C62.8139 5.4066 62.1111 5.33984 61.4084 5.33984C60.7056 5.33984 60.0029 5.4066 59.367 5.5401C58.6978 5.6736 58.0619 5.84048 57.4596 6.10749C56.8572 6.34112 56.2548 6.67489 55.7194 7.04202C55.1505 7.40916 54.6485 7.84305 54.1466 8.34369C53.6446 8.84433 53.2096 9.37834 52.8415 9.91236C52.4733 10.4798 52.1387 11.0471 51.9045 11.6479C51.6702 12.2487 51.4694 12.8828 51.3355 13.5504C51.2017 14.1845 51.1348 14.8854 51.1348 15.5863C51.1348 16.2872 51.2017 16.9881 51.3355 17.6222C51.4694 18.2897 51.6367 18.9239 51.9045 19.5247C52.1722 20.1254 52.4733 20.7262 52.8415 21.2602C53.2096 21.7942 53.6781 22.3283 54.1466 22.8289C54.6485 23.3295 55.184 23.7634 55.7194 24.1306C56.2883 24.4977 56.8572 24.8315 57.4596 25.0651C58.0619 25.3321 58.6978 25.499 59.367 25.6325C60.0363 25.766 60.7056 25.8327 61.4084 25.8327C62.1111 25.8327 62.8139 25.766 63.4832 25.6325C64.1525 25.499 64.7883 25.2987 65.3907 24.9983C65.993 24.7313 66.5954 24.3642 67.1643 23.9637C67.3985 23.7968 67.6663 23.5965 67.9005 23.3629C67.9005 24.0972 67.934 24.1973 67.934 24.2641C68.0344 24.7647 68.2352 25.1318 68.5363 25.3988C68.8375 25.6659 69.2391 25.7994 69.7411 25.7994C70.243 25.7994 70.6781 25.6325 71.0796 25.3321C71.2804 25.1652 71.4478 24.965 71.5481 24.7313C71.6485 24.4977 71.7155 24.2641 71.7155 23.9637V15.5529C71.7155 14.852 71.6485 14.1845 71.5147 13.517C71.3474 12.8828 71.18 12.2487 70.9123 11.6479ZM66.2942 20.4592C64.9556 21.7942 63.3159 22.4951 61.4084 22.4951C59.4674 22.4951 57.8277 21.8276 56.4556 20.4592C55.117 19.0908 54.4143 17.4887 54.4143 15.5529C54.4143 13.6505 55.0836 12.0151 56.4556 10.6466C57.7942 9.27822 59.4674 8.61069 61.4084 8.61069C63.3159 8.61069 64.9556 9.27822 66.2942 10.6466C67.6328 12.0151 68.3355 13.6505 68.3355 15.5529C68.3355 17.4553 67.6663 19.0908 66.2942 20.4592Z" fill="white"/>
<path d="M61.4082 8.61133C59.4672 8.61133 57.8274 9.27885 56.4554 10.6473C55.1168 12.0157 54.4141 13.6511 54.4141 15.5535C54.4141 17.456 55.0834 19.0914 56.4554 20.4598C57.794 21.7949 59.4672 22.4958 61.4082 22.4958C63.3156 22.4958 64.9554 21.8282 66.294 20.4598C67.6326 19.0914 68.3353 17.4894 68.3353 15.5535C68.3353 13.6511 67.666 12.0157 66.294 10.6473C64.9554 9.27885 63.3156 8.61133 61.4082 8.61133ZM67.3648 13.0837C67.5322 13.4509 67.6326 13.8514 67.733 14.2519C67.7999 14.6524 67.8668 15.0863 67.8668 15.5535C67.8668 15.9874 67.8333 16.4213 67.733 16.8218C67.666 17.2223 67.5322 17.6229 67.3648 17.99C67.1975 18.3571 66.9967 18.7243 66.7625 19.058C66.5282 19.3918 66.2605 19.7256 65.9259 20.0593C65.5912 20.3597 65.29 20.6601 64.9219 20.8937C64.5873 21.1273 64.2192 21.3276 63.8511 21.4611C63.483 21.628 63.0814 21.7281 62.6798 21.7949C62.2782 21.8616 61.8432 21.9284 61.4082 21.9284C60.9397 21.9284 60.5046 21.895 60.103 21.7949C59.7015 21.7281 59.2999 21.5946 58.8983 21.4611C58.5302 21.2942 58.1621 21.1273 57.794 20.8937C57.4593 20.6601 57.1247 20.3931 56.79 20.0593C56.4889 19.7589 56.1877 19.4252 55.9534 19.058C55.7192 18.7243 55.5184 18.3571 55.3845 17.99C55.2172 17.6229 55.1168 17.2223 55.0499 16.8218C54.983 16.4213 54.916 15.9874 54.916 15.5535C54.916 15.1197 54.9495 14.6858 55.0499 14.2519C55.1168 13.8514 55.2507 13.4509 55.3845 13.0837C55.5519 12.7166 55.7526 12.3494 55.9869 11.9823C56.2211 11.6486 56.4889 11.3148 56.8235 10.981C57.1247 10.6806 57.4593 10.3803 57.8274 10.1466C58.1621 9.913 58.5302 9.71274 58.8983 9.54586C59.2664 9.37898 59.668 9.27885 60.103 9.17872C60.5046 9.11197 60.9397 9.04522 61.4082 9.04522C61.8432 9.04522 62.2782 9.07859 62.6798 9.17872C63.0814 9.24547 63.483 9.37898 63.8511 9.54586C64.2192 9.71274 64.5873 9.913 64.9219 10.1466C65.2566 10.3803 65.5912 10.6473 65.9259 10.981C66.2271 11.3148 66.5282 11.6486 66.7625 11.9823C66.9967 12.3494 67.1975 12.7166 67.3648 13.0837Z" fill="white"/>
</svg>
