<svg width="119" height="26" viewBox="0 0 119 26" fill="none" xmlns="http://www.w3.org/2000/svg"><path d="M28.88 5.807c-.335-.267-.804-.4-1.272-.4-.503 0-.971.166-1.34.433a1.66 1.66 0 0 0-.668 1.37v2.837c0 .166.1.333.234.433a.631.631 0 0 0 .268.067.621.621 0 0 0 .234-.067l2.911-1.401c.168-.067.268-.267.268-.468V7.108c0-.267-.067-.534-.167-.767-.1-.2-.268-.4-.469-.534zm89.484 0c-.335-.267-.804-.4-1.272-.4a2.29 2.29 0 0 0-1.339.433 1.66 1.66 0 0 0-.669 1.369v2.837c0 .166.1.333.234.433.101.034.168.067.268.067.067 0 .134-.033.234-.067l2.912-1.401c.167-.067.267-.267.267-.468V7.108c0-.267-.067-.534-.167-.767-.134-.2-.268-.4-.468-.534zM51.235 8.111c.1-.167.134-.4.134-.667s-.034-.501-.134-.735a1.545 1.545 0 0 0-.435-.6 2.27 2.27 0 0 0-.602-.434 1.805 1.805 0 0 0-.737-.134c-.569 0-1.338.234-1.84 1.235 0 0-5.187 10.78-5.957 12.383-.803-1.57-6.19-12.283-6.258-12.416-.502-1.035-1.271-1.235-1.84-1.235-.268 0-.502.033-.736.133-.235.1-.436.234-.603.434-.2.2-.334.4-.435.601-.1.234-.134.467-.134.734 0 .3.034.5.134.668 0 0 8.132 15.753 8.165 15.753.168.334.335.668.536 1.002.134.233.334.4.535.534.235.133.469.166.736.166.402 0 .77-.166 1.105-.467.301-.267.569-.634.803-1.168l7.563-15.787zM24.898.567a1.967 1.967 0 0 0-.636-.433A1.805 1.805 0 0 0 23.526 0c-.536 0-1.272.2-1.707 1.202 0 .033-8.165 16.62-8.969 18.256-.836-1.635-9.27-18.256-9.27-18.256C3.08.2 2.344 0 1.84 0c-.234 0-.501.067-.702.167C.904.267.703.4.535.6c-.167.2-.334.4-.401.6A1.75 1.75 0 0 0 0 1.901c0 .334.067.568.167.801 0 .034 10.91 21.294 10.91 21.294.167.334.334.634.535.968.134.234.335.4.536.534.2.1.468.167.736.167.368 0 .703-.167 1.037-.5.268-.268.536-.635.77-1.169 0 0 10.575-21.294 10.608-21.294.1-.2.168-.467.168-.734 0-.267-.067-.5-.134-.734a3.288 3.288 0 0 0-.435-.668zm4.384 10.047c-.067-.067-.167-.067-.268-.067a.623.623 0 0 0-.234.067l-2.844 1.435a.52.52 0 0 0-.268.434v11.38c0 .502.167.969.535 1.336.168.2.369.334.603.434.234.1.468.167.736.167.502 0 .937-.167 1.339-.5.2-.168.368-.368.468-.602.1-.233.167-.467.167-.734V11.048c0-.2-.1-.334-.234-.434zm82.589 12.015c-.2-.2-.401-.334-.635-.434a1.834 1.834 0 0 0-.737-.167h-2.576c-.435 0-.87-.033-1.272-.1s-.803-.2-1.171-.334c-.368-.167-.737-.334-1.071-.567a10.662 10.662 0 0 1-1.004-.801 5.61 5.61 0 0 1-.837-.968 6.715 6.715 0 0 1-.602-1.068c-.167-.367-.268-.768-.368-1.169-.067-.4-.134-.834-.134-1.268V9.48h8.835c.267 0 .502-.034.736-.134.234-.1.435-.234.636-.4.2-.2.334-.401.435-.635.1-.233.134-.5.134-.767 0-.601-.134-1.068-.469-1.402-.301-.334-.77-.5-1.339-.5h-9.002V2.736c-.033-.501-.234-.935-.602-1.335-.167-.2-.401-.334-.602-.434A1.83 1.83 0 0 0 99.49.8a1.805 1.805 0 0 0-1.34.534 1.55 1.55 0 0 0-.434.6 1.75 1.75 0 0 0-.134.701v13.35c0 .702.067 1.37.2 2.037.135.634.336 1.268.57 1.869.267.6.569 1.168.937 1.702.368.534.836 1.035 1.338 1.535.502.468 1.038.901 1.607 1.269a9.556 9.556 0 0 0 1.74.9c.602.234 1.238.435 1.907.535.67.133 1.339.167 2.042.167.535 0 1.405-.034 2.576-.067.603-.033 1.038-.2 1.372-.534.335-.334.502-.801.502-1.369 0-.267-.067-.5-.167-.734 0-.267-.167-.467-.335-.667zm6.862-12.015c-.067-.067-.167-.067-.267-.067a.626.626 0 0 0-.235.067l-2.844 1.435a.522.522 0 0 0-.268.434v11.38c0 .502.167.969.536 1.336.167.2.368.334.602.434.234.1.468.167.736.167.502 0 .937-.167 1.339-.5.201-.168.368-.368.468-.602.101-.233.168-.467.168-.734V11.048c0-.2-.067-.334-.235-.434zM95.172 15.92c0-.7-.067-1.368-.2-2.036a12.461 12.461 0 0 0-.57-1.902c-.267-.6-.568-1.202-.936-1.736-.369-.534-.837-1.068-1.306-1.568a11.139 11.139 0 0 0-1.572-1.302c-.57-.367-1.138-.7-1.74-.935-.603-.267-1.239-.433-1.908-.567-.67-.133-1.339-.2-2.041-.2-.703 0-1.406.067-2.042.2-.669.134-1.305.3-1.907.567-.603.267-1.205.568-1.74.935-.536.367-1.071.801-1.573 1.302-.502.5-.937 1.034-1.305 1.568a8.701 8.701 0 0 0-.937 1.736c-.235.6-.435 1.235-.57 1.869a10 10 0 0 0-.2 2.036v8.077c0 .267.067.5.134.734.1.234.234.434.435.6.167.168.401.301.602.402.234.1.469.133.703.133.268 0 .502-.067.736-.167.234-.1.435-.234.636-.434.2-.2.335-.4.435-.634.1-.234.134-.5.134-.768v-7.91c0-.434.033-.867.1-1.301.067-.4.201-.801.368-1.169.168-.367.369-.734.57-1.101.234-.334.501-.668.836-1.001.301-.3.636-.601 1.004-.835a6.752 6.752 0 0 1 1.07-.6c.369-.167.77-.267 1.206-.368.401-.066.87-.133 1.305-.133.435 0 .87.033 1.271.133.402.067.803.2 1.171.368.369.166.737.367 1.071.6.335.234.67.501 1.004.835.302.333.603.667.837 1.001.234.334.435.7.602 1.101.168.368.268.768.335 1.169.067.4.134.834.134 1.301v8.044c0 .267.033.5.134.734.1.234.234.434.435.6.368.335.803.502 1.338.502.268 0 .502-.067.737-.167.234-.1.435-.234.635-.434a1.803 1.803 0 0 0 .569-1.369v-7.91zm-24.26-4.272c-.267-.6-.569-1.202-.937-1.736a11.186 11.186 0 0 0-1.305-1.568 11.21 11.21 0 0 0-1.573-1.302c-.569-.367-1.137-.7-1.74-.935-.602-.267-1.238-.433-1.907-.567-.636-.133-1.339-.2-2.042-.2-.702 0-1.405.067-2.041.2-.67.134-1.305.3-1.907.567a8.738 8.738 0 0 0-1.74.935c-.57.367-1.072.801-1.573 1.302-.502.5-.937 1.034-1.305 1.568-.369.568-.703 1.135-.938 1.736-.234.6-.435 1.235-.569 1.902-.133.634-.2 1.335-.2 2.036 0 .701.067 1.402.2 2.036.134.668.302 1.302.57 1.903.267.6.568 1.201.937 1.735.368.534.836 1.068 1.305 1.569.502.5 1.037.934 1.572 1.302.57.367 1.138.7 1.74.934.603.267 1.239.434 1.908.567a10.667 10.667 0 0 0 4.116 0 7.538 7.538 0 0 0 1.908-.634c.602-.267 1.204-.634 1.773-1.034.234-.167.502-.367.736-.601 0 .734.034.834.034.901.1.5.301.868.602 1.135.302.267.703.4 1.205.4.502 0 .937-.166 1.339-.467.2-.167.368-.367.468-.6.1-.234.168-.468.168-.768v-8.411c0-.701-.067-1.369-.201-2.036-.168-.634-.335-1.268-.603-1.87zm-4.618 8.811c-1.338 1.335-2.978 2.036-4.886 2.036-1.94 0-3.58-.667-4.952-2.036-1.339-1.368-2.042-2.97-2.042-4.906 0-1.903.67-3.538 2.042-4.906 1.338-1.369 3.011-2.036 4.952-2.036 1.908 0 3.548.667 4.886 2.036 1.339 1.368 2.041 3.003 2.041 4.906 0 1.902-.669 3.538-2.04 4.906z" fill="#fff"/><path d="M61.408 8.611c-1.94 0-3.58.668-4.953 2.036-1.338 1.369-2.04 3.004-2.04 4.906 0 1.903.668 3.538 2.04 4.907 1.339 1.335 3.012 2.036 4.953 2.036 1.908 0 3.547-.668 4.886-2.036 1.339-1.369 2.041-2.97 2.041-4.907 0-1.902-.669-3.537-2.041-4.906-1.339-1.368-2.978-2.036-4.886-2.036zm5.957 4.473c.167.367.268.767.368 1.168.067.4.134.834.134 1.301 0 .434-.034.868-.134 1.269-.067.4-.2.8-.368 1.168a6.724 6.724 0 0 1-.602 1.068 7.371 7.371 0 0 1-.837 1.001c-.335.3-.636.601-1.004.835a4.72 4.72 0 0 1-1.07.567c-.369.167-.77.267-1.172.334-.402.067-.837.133-1.272.133-.468 0-.903-.033-1.305-.133-.401-.067-.803-.2-1.205-.334-.368-.167-.736-.334-1.104-.567-.335-.234-.67-.5-1.004-.835a6.049 6.049 0 0 1-.837-1.001 4.702 4.702 0 0 1-.569-1.068 4.676 4.676 0 0 1-.334-1.168c-.067-.4-.134-.835-.134-1.268 0-.434.034-.868.134-1.302.067-.4.2-.801.335-1.168.167-.367.368-.735.602-1.102a7.39 7.39 0 0 1 .837-1.001c.3-.3.635-.6 1.003-.834a6.757 6.757 0 0 1 1.071-.601c.368-.167.77-.267 1.205-.367a7.842 7.842 0 0 1 1.305-.134c.435 0 .87.034 1.272.134.401.066.803.2 1.171.367.368.167.736.367 1.07.6.336.234.67.501 1.005.835.301.334.602.668.837 1.001.234.367.434.735.602 1.102z" fill="#fff"/></svg>